<svg width="58" height="90" viewBox="0 0 58 90" fill="none" xmlns="http://www.w3.org/2000/svg">
<defs>
<linearGradient id="fretsNoteGrad" x1="0" y1="0" x2="58" y2="90" gradientUnits="userSpaceOnUse">
<stop stop-color="#c4b5fd"/>
<stop offset="0.55" stop-color="#a78bfa"/>
<stop offset="1" stop-color="#7c3aed"/>
</linearGradient>
</defs>
<path d="M35.5117 12.1494C36.6228 13.7577 38.2825 16.0111 39.8906 17.9355C40.0558 17.6753 40.271 17.4406 40.5361 17.249C41.6554 16.4407 43.2179 16.6924 44.0264 17.8115L57.0264 35.8115C57.8347 36.9308 57.583 38.4933 56.4639 39.3018C55.3446 40.1101 53.7821 39.8584 52.9736 38.7393L47.4736 31.125C47.435 31.101 47.3973 31.0747 47.3613 31.0449C46.7854 30.567 46.4062 30.3773 46.0371 30.3086C45.7102 30.2478 45.2965 30.2647 44.6436 30.418L43.2715 31.0049L43.0527 31.0928C40.8093 31.9535 38.8403 31.2249 38.0684 30.8828C37.107 30.4567 36.2999 29.8684 35.7236 29.4014C35.4968 29.2175 35.27 29.0213 35.043 28.8174L29.9189 75.8662L29.916 75.8652C29.122 83.4021 22.7472 89.2754 15 89.2754C6.71573 89.2754 0 82.5597 0 74.2754C0 65.9911 6.71573 59.2754 15 59.2754C16.959 59.2754 18.8304 59.6509 20.5459 60.334L27.1182 0L35.5117 12.1494Z" fill="url(#fretsNoteGrad)"/>
</svg>
